{
  "accessors": [
    {
      "bufferView": 2,
      "componentType": 5126,
      "count": 6,
      "max": [
        12.214459419250488,
        5.272922992706299,
        1.8477809429168701
      ],
      "min": [
        1.9912810325622559,
        -18.335229873657227,
        0.7815750241279602
      ],
      "type": "VEC3"
    },
    {
      "bufferView": 2,
      "byteOffset": 72,
      "componentType": 5126,
      "count": 6,
      "max": [
        0.8121811747550964,
        -0.2045832723379135,
        -0.48683610558509827
      ],
      "min": [
        0.283902645111084,
        -0.8260689377784729,
        -0.5463582873344421
      ],
      "type": "VEC3"
    },
    {
      "bufferView": 1,
      "componentType": 5126,
      "count": 6,
      "max": [
        0.7604789733886719,
        0.9635270237922668
      ],
      "min": [
        0.7604789733886719,
        0.9635270237922668
      ],
      "type": "VEC2"
    },
    {
      "bufferView": 0,
      "componentType": 5125,
      "count": 6,
      "type": "SCALAR"
    },
    {
      "bufferView": 2,
      "byteOffset": 144,
      "componentType": 5126,
      "count": 2266,
      "max": [
        16.664306640625,
        13.78398323059082,
        7.544917106628418
      ],
      "min": [
        -13.698569297790527,
        -18.970142364501953,
        -1.607354998588562
      ],
      "type": "VEC3"
    },
    {
      "bufferView": 2,
      "byteOffset": 27336,
      "componentType": 5126,
      "count": 2266,
      "max": [
        0.999681830406189,
        0.9900603890419006,
        0.9994754195213318
      ],
      "min": [
        -0.9928756952285767,
        -0.9961455464363098,
        -0.7643374800682068
      ],
      "type": "VEC3"
    },
    {
      "bufferView": 1,
      "byteOffset": 48,
      "componentType": 5126,
      "count": 2266,
      "max": [
        0.954101026058197,
        0.9963859915733337
      ],
      "min": [
        0.0031079999171197414,
        0.06294599920511246
      ],
      "type": "VEC2"
    },
    {
      "bufferView": 0,
      "byteOffset": 24,
      "componentType": 5125,
      "count": 2298,
      "type": "SCALAR"
    },
    {
      "bufferView": 2,
      "byteOffset": 54528,
      "componentType": 5126,
      "count": 688,
      "max": [
        15.28231430053711,
        11.835105895996094,
        7.544917106628418
      ],
      "min": [
        -15.847835540771484,
        -13.524582862854004,
        -1.453616976737976
      ],
      "type": "VEC3"
    },
    {
      "bufferView": 2,
      "byteOffset": 62784,
      "componentType": 5126,
      "count": 688,
      "max": [
        0.9994789361953735,
        0.9789212942123413,
        0.9972925186157227
      ],
      "min": [
        -0.9964830279350281,
        -0.9958815574645996,
        -0.6195412278175354
      ],
      "type": "VEC3"
    },
    {
      "bufferView": 1,
      "byteOffset": 18176,
      "componentType": 5126,
      "count": 688,
      "max": [
        0.9803239703178406,
        0.9911010265350342
      ],
      "min": [
        0.0120430001989007,
        0.05335099995136261
      ],
      "type": "VEC2"
    },
    {
      "bufferView": 0,
      "byteOffset": 9216,
      "componentType": 5125,
      "count": 696,
      "type": "SCALAR"
    }
  ],
  "asset": {
    "extras": {
      "author": "James (https://sketchfab.com/james)",
      "license": "CC-BY-4.0 (http://creativecommons.org/licenses/by/4.0/)",
      "source": "https://sketchfab.com/3d-models/lowpoly-chicken-and-waffles-b4d2525b58a54717ab604aae8ca2b900",
      "title": "Lowpoly Chicken and Waffles"
    },
    "generator": "Sketchfab-11.17.0",
    "version": "2.0"
  },
  "bufferViews": [
    {
      "buffer": 0,
      "byteLength": 12000,
      "name": "floatBufferViews",
      "target": 34963
    },
    {
      "buffer": 0,
      "byteLength": 23680,
      "byteOffset": 12000,
      "byteStride": 8,
      "name": "floatBufferViews",
      "target": 34962
    },
    {
      "buffer": 0,
      "byteLength": 71040,
      "byteOffset": 35680,
      "byteStride": 12,
      "name": "floatBufferViews",
      "target": 34962
    }
  ],
  "buffers": [
    {
      "byteLength": 106720,
      "uri": "scene.bin"
    }
  ],
  "extensionsUsed": [
    "KHR_materials_unlit"
  ],
  "images": [
    {
      "uri": "textures/material_0_baseColor.jpeg"
    },
    {
      "uri": "textures/material_2_baseColor.jpeg"
    }
  ],
  "materials": [
    {
      "doubleSided": true,
      "extensions": {
        "KHR_materials_unlit": {}
      },
      "name": "material_0",
      "pbrMetallicRoughness": {
        "baseColorTexture": {
          "index": 0
        },
        "metallicFactor": 0.0
      }
    },
    {
      "doubleSided": true,
      "extensions": {
        "KHR_materials_unlit": {}
      },
      "name": "material_1",
      "pbrMetallicRoughness": {
        "baseColorTexture": {
          "index": 0
        },
        "metallicFactor": 0.0
      }
    },
    {
      "doubleSided": true,
      "extensions": {
        "KHR_materials_unlit": {}
      },
      "name": "material_2",
      "pbrMetallicRoughness": {
        "baseColorTexture": {
          "index": 1
        },
        "metallicFactor": 0.0
      }
    }
  ],
  "meshes": [
    {
      "name": "Object_0",
      "primitives": [
        {
          "attributes": {
            "NORMAL": 1,
            "POSITION": 0,
            "TEXCOORD_0": 2
          },
          "indices": 3,
          "material": 0,
          "mode": 4
        }
      ]
    },
    {
      "name": "Object_1",
      "primitives": [
        {
          "attributes": {
            "NORMAL": 5,
            "POSITION": 4,
            "TEXCOORD_0": 6
          },
          "indices": 7,
          "material": 1,
          "mode": 4
        }
      ]
    },
    {
      "name": "Object_2",
      "primitives": [
        {
          "attributes": {
            "NORMAL": 9,
            "POSITION": 8,
            "TEXCOORD_0": 10
          },
          "indices": 11,
          "material": 2,
          "mode": 4
        }
      ]
    }
  ],
  "nodes": [
    {
      "children": [
        1
      ],
      "matrix": [
        1.0,
        0.0,
        0.0,
        0.0,
        0.0,
        2.220446049250313e-16,
        -1.0,
        0.0,
        0.0,
        1.0,
        2.220446049250313e-16,
        0.0,
        0.0,
        0.0,
        0.0,
        1.0
      ],
      "name": "Sketchfab_model"
    },
    {
      "children": [
        2,
        3,
        4
      ],
      "name": "chicken-and-waffles-dec.obj.cleaner.materialmerger.gles"
    },
    {
      "mesh": 0,
      "name": "Object_2"
    },
    {
      "mesh": 1,
      "name": "Object_3"
    },
    {
      "mesh": 2,
      "name": "Object_4"
    }
  ],
  "samplers": [
    {
      "magFilter": 9729,
      "minFilter": 9987,
      "wrapS": 10497,
      "wrapT": 10497
    }
  ],
  "scene": 0,
  "scenes": [
    {
      "name": "Sketchfab_Scene",
      "nodes": [
        0
      ]
    }
  ],
  "textures": [
    {
      "sampler": 0,
      "source": 0
    },
    {
      "sampler": 0,
      "source": 1
    }
  ]
}
