{
  "accessors": [
    {
      "bufferView": 2,
      "componentType": 5126,
      "count": 19880,
      "max": [
        2.7906670570373535,
        -39.844688415527344,
        2.3276851177215576
      ],
      "min": [
        -3.2315530776977539,
        -43.348537445068359,
        -2.6211950778961182
      ],
      "type": "VEC3"
    },
    {
      "bufferView": 2,
      "byteOffset": 238560,
      "componentType": 5126,
      "count": 19880,
      "max": [
        0.99947082996368408,
        0.99995613098144531,
        0.99990004301071167
      ],
      "min": [
        -0.99984419345855713,
        -0.99994570016860962,
        -0.99996060132980347
      ],
      "type": "VEC3"
    },
    {
      "bufferView": 3,
      "componentType": 5126,
      "count": 19880,
      "max": [
        0.99999868869781494,
        0.99999469518661499,
        0.9997062087059021,
        -1
      ],
      "min": [
        -0.99999982118606567,
        -0.99999845027923584,
        -0.99990350008010864,
        -1
      ],
      "type": "VEC4"
    },
    {
      "bufferView": 1,
      "componentType": 5126,
      "count": 19880,
      "max": [
        0.99902302026748657,
        0.41699200868606567
      ],
      "min": [
        0.00097699998877942562,
        0.00097699998877942562
      ],
      "type": "VEC2"
    },
    {
      "bufferView": 0,
      "componentType": 5125,
      "count": 90000,
      "max": [
        19879
      ],
      "min": [
        0
      ],
      "type": "SCALAR"
    }
  ],
  "asset": {
    "extras": {
      "author": "grafi (https://sketchfab.com/zdenkoroman)",
      "license": "CC-BY-4.0 (http://creativecommons.org/licenses/by/4.0/)",
      "source": "https://sketchfab.com/3d-models/orange-open-3d-scan-e1337f3aa3ba4007aff505fabbb4c0ae",
      "title": "Orange Open 3D scan"
    },
    "generator": "Sketchfab-10.26.0",
    "version": "2.0"
  },
  "bufferViews": [
    {
      "buffer": 0,
      "byteLength": 360000,
      "byteOffset": 0,
      "name": "floatBufferViews",
      "target": 34963
    },
    {
      "buffer": 0,
      "byteLength": 159040,
      "byteOffset": 360000,
      "byteStride": 8,
      "name": "floatBufferViews",
      "target": 34962
    },
    {
      "buffer": 0,
      "byteLength": 477120,
      "byteOffset": 519040,
      "byteStride": 12,
      "name": "floatBufferViews",
      "target": 34962
    },
    {
      "buffer": 0,
      "byteLength": 318080,
      "byteOffset": 996160,
      "byteStride": 16,
      "name": "floatBufferViews",
      "target": 34962
    }
  ],
  "buffers": [
    {
      "byteLength": 1314240,
      "uri": "scene.bin"
    }
  ],
  "extensionsRequired": [
    "KHR_materials_pbrSpecularGlossiness"
  ],
  "extensionsUsed": [
    "KHR_materials_pbrSpecularGlossiness"
  ],
  "images": [
    {
      "uri": "textures/material_0_diffuse.png"
    },
    {
      "uri": "textures/material_0_specularGlossiness.png"
    },
    {
      "uri": "textures/material_0_normal.png"
    }
  ],
  "materials": [
    {
      "doubleSided": true,
      "extensions": {
        "KHR_materials_pbrSpecularGlossiness": {
          "diffuseFactor": [
            1,
            1,
            1,
            1
          ],
          "diffuseTexture": {
            "index": 0,
            "texCoord": 0
          },
          "glossinessFactor": 0.22568984182529783,
          "specularFactor": [
            0.70522205828587115,
            0.70522205828587115,
            0.70522205828587115
          ],
          "specularGlossinessTexture": {
            "index": 1,
            "texCoord": 0
          }
        }
      },
      "name": "material_0",
      "normalTexture": {
        "index": 2,
        "scale": 1,
        "texCoord": 0
      }
    }
  ],
  "meshes": [
    {
      "primitives": [
        {
          "attributes": {
            "NORMAL": 1,
            "POSITION": 0,
            "TANGENT": 2,
            "TEXCOORD_0": 3
          },
          "indices": 4,
          "material": 0,
          "mode": 4
        }
      ]
    }
  ],
  "nodes": [
    {
      "children": [
        1
      ],
      "name": "RootNode (gltf orientation matrix)",
      "rotation": [
        -0.70710678118654746,
        -0,
        -0,
        0.70710678118654757
      ]
    },
    {
      "children": [
        2
      ],
      "matrix": [
        0.024810178947600403,
        0.000113725116774069,
        0.0030727981116294573,
        0,
        0.0029166579681136895,
        -0.0087816284415368484,
        -0.023224471855528228,
        0,
        0.00097371862789569219,
        0.023406625142792237,
        -0.0087282189537319366,
        0,
        4.8678245544433594,
        -56.156936645507812,
        -38.665195465087891,
        1
      ],
      "name": "RootNode (model correction matrix)"
    },
    {
      "children": [
        3
      ],
      "name": "export_low_poly_retus.obj.cleaner.materialmerger.gles"
    },
    {
      "mesh": 0,
      "name": ""
    }
  ],
  "samplers": [
    {
      "magFilter": 9729,
      "minFilter": 9987,
      "wrapS": 10497,
      "wrapT": 10497
    }
  ],
  "scene": 0,
  "scenes": [
    {
      "name": "OSG_Scene",
      "nodes": [
        0
      ]
    }
  ],
  "textures": [
    {
      "sampler": 0,
      "source": 0
    },
    {
      "sampler": 0,
      "source": 1
    },
    {
      "sampler": 0,
      "source": 2
    }
  ]
}

