{
  "accessors": [
    {
      "bufferView": 2,
      "componentType": 5126,
      "count": 3060,
      "max": [
        22.272022247314453,
        3.825559616088867,
        15.843219757080078
      ],
      "min": [
        -19.918447494506836,
        -26.512496948242188,
        -2.163431406021118
      ],
      "type": "VEC3"
    },
    {
      "bufferView": 2,
      "byteOffset": 36720,
      "componentType": 5126,
      "count": 3060,
      "max": [
        1.0,
        1.0,
        1.0
      ],
      "min": [
        -1.0,
        -0.9980853796005249,
        -0.9993354678153992
      ],
      "type": "VEC3"
    },
    {
      "bufferView": 1,
      "componentType": 5126,
      "count": 3060,
      "max": [
        0.9957778453826904,
        0.9947516918182373
      ],
      "min": [
        0.00229239696636796,
        0.0029478981159627438
      ],
      "type": "VEC2"
    },
    {
      "bufferView": 0,
      "componentType": 5125,
      "count": 11256,
      "type": "SCALAR"
    },
    {
      "bufferView": 2,
      "byteOffset": 73440,
      "componentType": 5126,
      "count": 2192,
      "max": [
        22.41989517211914,
        3.970770835876465,
        15.93471908569336
      ],
      "min": [
        -20.051559448242188,
        -26.660600662231445,
        -2.295292377471924
      ],
      "type": "VEC3"
    },
    {
      "bufferView": 2,
      "byteOffset": 99744,
      "componentType": 5126,
      "count": 2192,
      "max": [
        1.0,
        0.9995834827423096,
        0.999357283115387
      ],
      "min": [
        -1.0,
        -0.9991990923881531,
        -1.0
      ],
      "type": "VEC3"
    },
    {
      "bufferView": 1,
      "byteOffset": 24480,
      "componentType": 5126,
      "count": 2192,
      "max": [
        0.5990699529647827,
        0.9831833243370056
      ],
      "min": [
        0.5353348851203918,
        0.9137066006660461
      ],
      "type": "VEC2"
    },
    {
      "bufferView": 0,
      "byteOffset": 45024,
      "componentType": 5125,
      "count": 11256,
      "type": "SCALAR"
    }
  ],
  "asset": {
    "extras": {
      "author": "Miray Scheidel (https://sketchfab.com/Miandray)",
      "license": "CC-BY-NC-4.0 (http://creativecommons.org/licenses/by-nc/4.0/)",
      "source": "https://sketchfab.com/3d-models/octopus-sandwich-39c90a98d0e349819222cbfd9ad1803c",
      "title": "Octopus Sandwich"
    },
    "generator": "Sketchfab-11.29.0",
    "version": "2.0"
  },
  "bufferViews": [
    {
      "buffer": 0,
      "byteLength": 90048,
      "name": "floatBufferViews",
      "target": 34963
    },
    {
      "buffer": 0,
      "byteLength": 42016,
      "byteOffset": 90048,
      "byteStride": 8,
      "name": "floatBufferViews",
      "target": 34962
    },
    {
      "buffer": 0,
      "byteLength": 126048,
      "byteOffset": 132064,
      "byteStride": 12,
      "name": "floatBufferViews",
      "target": 34962
    }
  ],
  "buffers": [
    {
      "byteLength": 258112,
      "uri": "scene.bin"
    }
  ],
  "extensionsUsed": [
    "KHR_materials_unlit"
  ],
  "images": [
    {
      "uri": "textures/MAT_Cel_baseColor.png"
    }
  ],
  "materials": [
    {
      "extensions": {
        "KHR_materials_unlit": {}
      },
      "name": "MAT_Cel",
      "pbrMetallicRoughness": {
        "baseColorTexture": {
          "index": 0
        },
        "metallicFactor": 0.0
      }
    }
  ],
  "meshes": [
    {
      "name": "Bread_MAT_Cel_0",
      "primitives": [
        {
          "attributes": {
            "NORMAL": 1,
            "POSITION": 0,
            "TEXCOORD_0": 2
          },
          "indices": 3,
          "material": 0,
          "mode": 4
        }
      ]
    },
    {
      "name": "Bread CEL_MAT_Cel_0",
      "primitives": [
        {
          "attributes": {
            "NORMAL": 5,
            "POSITION": 4,
            "TEXCOORD_0": 6
          },
          "indices": 7,
          "material": 0,
          "mode": 4
        }
      ]
    }
  ],
  "nodes": [
    {
      "children": [
        1
      ],
      "matrix": [
        1.0,
        0.0,
        0.0,
        0.0,
        0.0,
        2.220446049250313e-16,
        -1.0,
        0.0,
        0.0,
        1.0,
        2.220446049250313e-16,
        0.0,
        0.0,
        0.0,
        0.0,
        1.0
      ],
      "name": "Sketchfab_model"
    },
    {
      "children": [
        2
      ],
      "matrix": [
        1.0,
        0.0,
        0.0,
        0.0,
        0.0,
        0.0,
        1.0,
        0.0,
        0.0,
        -1.0,
        0.0,
        0.0,
        0.0,
        0.0,
        0.0,
        1.0
      ],
      "name": "255aecad196148449fe85b0618a33eb6.fbx"
    },
    {
      "children": [
        3,
        6
      ],
      "name": "RootNode"
    },
    {
      "children": [
        4
      ],
      "matrix": [
        1.0,
        0.0,
        0.0,
        0.0,
        0.0,
        2.220446049250313e-16,
        -1.0,
        0.0,
        0.0,
        1.0,
        2.220446049250313e-16,
        0.0,
        0.0,
        0.0,
        0.0,
        1.0
      ],
      "name": "Bread"
    },
    {
      "children": [
        5
      ],
      "matrix": [
        1.0,
        0.0,
        -0.0,
        0.0,
        0.0,
        1.0,
        0.0,
        0.0,
        0.0,
        0.0,
        1.0,
        0.0,
        0.0,
        9.148544311523438,
        -4.76837158203125e-07,
        1.0
      ],
      "name": "Object_4"
    },
    {
      "mesh": 0,
      "name": "Bread_MAT_Cel_0"
    },
    {
      "children": [
        7
      ],
      "matrix": [
        1.0,
        0.0,
        0.0,
        0.0,
        0.0,
        2.220446049250313e-16,
        -1.0,
        0.0,
        0.0,
        1.0,
        2.220446049250313e-16,
        0.0,
        0.0,
        0.0,
        0.0,
        1.0
      ],
      "name": "Bread CEL"
    },
    {
      "children": [
        8
      ],
      "matrix": [
        1.0,
        0.0,
        -0.0,
        0.0,
        0.0,
        1.0,
        0.0,
        0.0,
        0.0,
        0.0,
        1.0,
        0.0,
        0.0,
        9.148544311523438,
        -4.76837158203125e-07,
        1.0
      ],
      "name": "Object_7"
    },
    {
      "mesh": 1,
      "name": "Bread CEL_MAT_Cel_0"
    }
  ],
  "samplers": [
    {
      "magFilter": 9729,
      "minFilter": 9987,
      "wrapS": 10497,
      "wrapT": 10497
    }
  ],
  "scene": 0,
  "scenes": [
    {
      "name": "Sketchfab_Scene",
      "nodes": [
        0
      ]
    }
  ],
  "textures": [
    {
      "sampler": 0,
      "source": 0
    }
  ]
}
